<svg xmlns="http://www.w3.org/2000/svg" viewBox="0 0 64 64">
  <circle cx="32" cy="32" r="29" fill="#973128"/>
  <path transform="translate(33 31) scale(0.04091) translate(-487.50 372.75)" fill="#f1e9d4" d="M652 17.50Q739.50 17.50 801-14.50Q862.50-46.50 895-108.25Q927.50-170 927.50-259.50Q927.50-356 890.75-445.50Q854-535 785.50-606.50Q716-679 621-721Q526-763 417.50-763Q302-763 220.75-729.25Q139.50-695.50 97.25-635.75Q55-576 55-496.50Q55-444 77.75-413.50Q100.50-383 141-383Q173.50-383 194.50-403.50Q215.50-424 215.50-456Q215.50-477 211-493.25Q206.50-509.50 200.50-524Q194.50-538.50 190-554.75Q185.50-571 185.50-592.50Q185.50-634 209.75-666Q234-698 284.75-716.25Q335.50-734.50 414.50-734.50Q518-734.50 607-693.75Q696-653 760.50-584.50Q826.50-515.50 860.25-430.25Q894-345 894-259Q894-186.50 873.25-139Q852.50-91.50 816.75-68.25Q781-45 735-45Q699-45 668.50-60.25Q638-75.50 605.25-111.75Q572.50-148 530-210Q495.50-259 473-304.75Q450.50-350.50 439.50-396.75Q428.50-443 428.50-494Q428.50-543.50 444.75-575.25Q461-607 484.50-607Q503.50-607 512.75-578.50Q522-550 522-505Q522-457 510-422.50Q498-388 477-369.25Q456-350.50 429-348.50L433.50-330.50Q503.50-332.50 554-352.75Q604.50-373 632-409Q659.50-445 659.50-494Q659.50-535.50 638.50-567.50Q617.50-599.50 580.25-617.75Q543-636 494.50-636Q427.50-636 380-607.75Q332.50-579.50 307-530.25Q281.50-481 281.50-417.50Q281.50-371 291.75-323Q302-275 323.50-225.50Q345-176 380-124Q414-73 455-42Q496-11 545 3.25Q594 17.50 652 17.50M591.50-107.50L601-90Q697.50-124.50 745.50-179.50Q793.50-234.50 793.50-298.50Q793.50-343 772.75-367.25Q752-391.50 719.50-391.50Q686-391.50 664.50-369Q643-346.50 643-316Q643-299 647.25-285.75Q651.50-272.50 655.75-257.25Q660-242 660-220Q660-203.50 653.25-183.25Q646.50-163 631.50-143.25Q616.50-123.50 591.50-107.50M309.50-317L309-338.50Q225.50-336.50 167.25-313Q109-289.50 78.25-248.25Q47.50-207 47.50-151.50Q47.50-74.50 98.25-30.75Q149 13 241 13Q293 13 331.50 3.75Q370-5.50 398-22Q426-38.50 447.50-59.50L432.50-84.50Q414-69 392.50-60.50Q371-52 342.50-52Q289.50-52 258.50-89.25Q227.50-126.50 227.50-190Q227.50-224.50 237-252.50Q246.50-280.50 265-297.50Q283.50-314.50 309.50-317"/>
</svg>
